<svg height="423pt" viewBox="0 0 423 423.25847" width="423pt" xmlns="http://www.w3.org/2000/svg"><path d="m293.675781 273.074219c0 79.175781-64.183593 143.359375-143.359375 143.359375-79.175781 0-143.359375-64.183594-143.359375-143.359375s64.183594-143.359375 143.359375-143.359375c79.175782 0 143.359375 64.183594 143.359375 143.359375zm0 0" fill="#fff35f"/><g fill="#54596e"><path d="m293.675781 273.074219h6.828125c-.007812-82.949219-67.238281-150.183594-150.1875-150.1875-82.949218.003906-150.183594 67.238281-150.1875 150.1875.003906 82.945312 67.238282 150.179687 150.1875 150.183593 82.949219-.003906 150.179688-67.238281 150.1875-150.183593h-13.65625c0 37.722656-15.269531 71.8125-39.988281 96.539062-24.730469 24.71875-58.816406 39.988281-96.542969 39.992188-37.726562-.003907-71.816406-15.273438-96.546875-39.988281-24.714843-24.730469-39.984375-58.820313-39.988281-96.542969.003906-37.722657 15.273438-71.8125 39.988281-96.542969 24.730469-24.714844 58.820313-39.984375 96.546875-39.992188 37.722656.007813 71.8125 15.273438 96.542969 39.992188 24.71875 24.730469 39.988281 58.820312 39.988281 96.542969zm0 0"/><path d="m110.199219 284.964844c8.980469 9.75 23.652343 15.355468 40.117187 15.414062 16.304688-.054687 30.839844-5.554687 39.84375-15.125 2.566406-2.765625 2.40625-7.082031-.355468-9.648437-2.761719-2.566407-7.082032-2.40625-9.644532.359375-5.4375 5.96875-16.707031 10.816406-29.84375 10.765625-13.265625.054687-24.632812-4.898438-30.011718-10.945313-2.535157-2.792968-6.851563-3-9.644532-.464844-2.789062 2.535157-2.996094 6.851563-.460937 9.644532zm0 0"/><path d="m102.527344 211.632812c0 7.542969-6.109375 13.652344-13.652344 13.652344-7.539062 0-13.652344-6.109375-13.652344-13.652344 0-7.539062 6.113282-13.652343 13.652344-13.652343 7.542969 0 13.652344 6.113281 13.652344 13.652343zm0 0"/><path d="m225.410156 211.632812c0 7.542969-6.113281 13.652344-13.652344 13.652344-7.542968 0-13.65625-6.109375-13.65625-13.652344 0-7.539062 6.113282-13.652343 13.65625-13.652343 7.539063 0 13.652344 6.113281 13.652344 13.652343zm0 0"/></g><path d="m225.410156 252.59375c0 7.539062-6.113281 13.652344-13.652344 13.652344-7.542968 0-13.65625-6.113282-13.65625-13.652344s6.113282-13.652344 13.65625-13.652344c7.539063 0 13.652344 6.113282 13.652344 13.652344zm0 0" fill="#ff927d"/><path d="m102.527344 252.59375c0 7.539062-6.109375 13.652344-13.652344 13.652344-7.539062 0-13.652344-6.113282-13.652344-13.652344s6.113282-13.652344 13.652344-13.652344c7.542969 0 13.652344 6.113282 13.652344 13.652344zm0 0" fill="#ff927d"/><path d="m293.675781 225.285156c-5.859375 0-11.621093-1.882812-16.382812-5.457031l-81.921875-61.441406c-12.066406-9.046875-14.507813-26.167969-5.460938-38.230469 9.050782-12.0625 26.164063-14.496094 38.226563-5.460938l57.398437 43.046876 80.125-137.359376c7.597656-13.019531 24.316406-17.425781 37.347656-9.828124 13.027344 7.601562 17.425782 24.320312 9.828126 37.347656l-95.574219 163.839844c-3.921875 6.726562-10.535157 11.460937-18.171875 13.007812-1.796875.359375-3.613282.535156-5.414063.535156zm0 0" fill="#9af43b"/><path d="m293.675781 225.285156v-6.824218c-4.394531-.003907-8.714843-1.417969-12.285156-4.09375l-81.921875-61.441407c-5.375-4.035156-8.183594-10.15625-8.195312-16.40625.007812-4.292969 1.324218-8.570312 4.097656-12.269531 4.035156-5.371094 10.152344-8.179688 16.40625-8.191406 4.289062.007812 8.5625 1.324218 12.269531 4.097656l57.394531 43.042969c1.558594 1.171875 3.539063 1.617187 5.449219 1.230469 1.910156-.386719 3.558594-1.566407 4.542969-3.25l80.125-137.359376c3.808594-6.53125 10.652344-10.15625 17.71875-10.167968 3.507812.003906 7.023437.890625 10.285156 2.792968 6.539062 3.816407 10.160156 10.65625 10.171875 17.71875-.003906 3.503907-.894531 7.027344-2.800781 10.300782l-95.570313 163.835937c-2.941406 5.042969-7.902343 8.597657-13.628906 9.757813l.011719-.003906c-1.359375.273437-2.722656.40625-4.070313.40625v13.652343c2.257813 0 4.519531-.226562 6.753907-.675781h.011718c9.546875-1.933594 17.808594-7.851562 22.71875-16.257812l95.570313-163.839844c3.148437-5.394532 4.660156-11.339844 4.65625-17.175782.007812-11.726562-6.074219-23.167968-16.9375-29.507812-5.390625-3.152344-11.339844-4.65625-17.175781-4.65625-11.726563-.0117188-23.171876 6.078125-29.511719 16.9375l-76.265625 130.742188-51.261719-38.449219c-6.125-4.59375-13.351563-6.828125-20.460937-6.820313-10.351563-.011718-20.628907 4.71875-27.324219 13.644532-4.597657 6.117187-6.835938 13.34375-6.828125 20.460937-.011719 10.351563 4.722656 20.636719 13.65625 27.332031l81.917968 61.4375c5.957032 4.46875 13.15625 6.828125 20.480469 6.828125zm0 0" fill="#54596e"/></svg>