<svg height="416pt" viewBox="0 0 416.42668 416" width="416pt" xmlns="http://www.w3.org/2000/svg"><path d="m293.546875 266.453125c0 79.175781-64.183594 143.359375-143.359375 143.359375s-143.359375-64.183594-143.359375-143.359375 64.183594-143.359375 143.359375-143.359375 143.359375 64.183594 143.359375 143.359375zm0 0" fill="#f4a14e"/><g fill="#54596e"><path d="m293.546875 266.453125h6.828125c-.007812-82.945313-67.238281-150.183594-150.1875-150.1875-82.949219.003906-150.18359375 67.242187-150.1875 150.1875.00390625 82.945313 67.238281 150.183594 150.1875 150.183594s150.179688-67.238281 150.1875-150.183594h-13.65625c-.003906 37.722656-15.269531 71.8125-39.988281 96.542969-24.730469 24.71875-58.820313 39.988281-96.542969 39.992187-37.726562-.007812-71.816406-15.273437-96.546875-39.992187-24.714844-24.730469-39.984375-58.820313-39.988281-96.542969.003906-37.722656 15.273437-71.816406 39.988281-96.542969 24.730469-24.71875 58.820313-39.988281 96.546875-39.988281 37.722656.003906 71.8125 15.269531 96.542969 39.992187 24.71875 24.726563 39.984375 58.816407 39.988281 96.539063zm0 0"/><path d="m120.175781 339.3125c5.378907-6.050781 16.742188-11.003906 30.011719-10.945312 13.136719-.054688 24.40625 4.792968 29.84375 10.761718 2.566406 2.757813 6.882812 2.917969 9.644531.351563 2.761719-2.566407 2.917969-6.886719.351563-9.644531-9.003906-9.566407-23.535156-15.066407-39.84375-15.121094-16.464844.058594-31.132813 5.664062-40.113282 15.414062-2.535156 2.792969-2.332031 7.109375.460938 9.644532 2.789062 2.535156 7.109375 2.328124 9.644531-.460938zm0 0"/><path d="m102.398438 252.800781c0 7.539063-6.109376 13.652344-13.652344 13.652344-7.539063 0-13.652344-6.113281-13.652344-13.652344 0-7.542969 6.113281-13.652343 13.652344-13.652343 7.542968 0 13.652344 6.109374 13.652344 13.652343zm0 0"/><path d="m225.28125 252.800781c0 7.539063-6.113281 13.652344-13.65625 13.652344-7.539062 0-13.652344-6.113281-13.652344-13.652344 0-7.542969 6.113282-13.652343 13.652344-13.652343 7.542969 0 13.65625 6.109374 13.65625 13.652343zm0 0"/></g><path d="m225.28125 293.761719c0 7.539062-6.113281 13.652343-13.65625 13.652343-7.539062 0-13.652344-6.113281-13.652344-13.652343 0-7.542969 6.113282-13.65625 13.652344-13.65625 7.542969 0 13.65625 6.113281 13.65625 13.65625zm0 0" fill="#fff35f"/><path d="m102.398438 293.761719c0 7.539062-6.109376 13.652343-13.652344 13.652343-7.539063 0-13.652344-6.113281-13.652344-13.652343 0-7.542969 6.113281-13.65625 13.652344-13.65625 7.542968 0 13.652344 6.113281 13.652344 13.65625zm0 0" fill="#fff35f"/><path d="m352.644531 102.613281 48.960938-48.960937c10.660156-10.660156 10.660156-27.953125 0-38.613282-10.667969-10.667968-27.953125-10.667968-38.621094 0l-48.957031 48.960938-48.957032-48.960938c-10.667968-10.667968-27.953124-10.667968-38.621093 0-10.664063 10.660157-10.664063 27.953126 0 38.613282l48.960937 48.960937-48.960937 48.960938c-10.664063 10.660156-10.664063 27.953125 0 38.613281 5.332031 5.332031 12.320312 8 19.3125 8 6.988281 0 13.972656-2.667969 19.308593-8l48.957032-48.960938 48.957031 48.960938c5.332031 5.332031 12.320313 8 19.308594 8 6.992187 0 13.976562-2.667969 19.308593-8 10.664063-10.660156 10.664063-27.957031 0-38.613281zm0 0" fill="#f99"/><path d="m352.644531 102.613281 4.824219 4.828125 48.960938-48.960937c6.652343-6.648438 10.003906-15.425781 9.996093-24.132813.007813-8.714844-3.34375-17.496094-10-24.136718-6.644531-6.652344-15.421875-10.003907-24.132812-9.996094-8.710938-.011719-17.488281 3.34375-24.136719 9.996094l-44.128906 44.132812-44.128906-44.132812c-6.648438-6.652344-15.425782-10.003907-24.136719-9.996094-8.714844-.011719-17.492188 3.34375-24.140625 9.996094-6.652344 6.644531-10.003906 15.421874-9.996094 24.136718-.007812 8.710938 3.347656 17.488282 10 24.132813l44.128906 44.132812-44.132812 44.132813c-6.652344 6.644531-10.003906 15.421875-9.996094 24.136718-.007812 8.710938 3.34375 17.488282 9.996094 24.132813 6.648437 6.652344 15.421875 10.007813 24.136718 9.996094 8.714844.011719 17.492188-3.34375 24.136719-9.996094l44.128907-44.132813 44.128906 44.132813c6.648437 6.652344 15.425781 10.007813 24.140625 9.996094 8.714843.011719 17.488281-3.34375 24.136719-9.996094 6.652343-6.648437 10.003906-15.425781 9.996093-24.132813.007813-8.714843-3.34375-17.496093-10-24.136718l-48.957031-48.960938-4.824219 4.828125 4.824219 4.828125-4.824219-4.828125-4.828125 4.828125 48.960938 48.960938c4.011718 4.011718 5.992187 9.210937 6 14.476562-.007813 5.261719-1.988282 10.464844-6 14.480469-4.019532 4.015625-9.21875 5.992187-14.480469 6-5.265625-.007813-10.464844-1.984375-14.484375-6l-48.957031-48.960937c-2.664063-2.664063-6.988281-2.664063-9.652344 0l-48.957031 48.960937c-4.019532 4.015625-9.21875 5.992187-14.484375 6-5.265625-.007813-10.464844-1.984375-14.484375-6-4.007813-4.015625-5.988282-9.214844-5.996094-14.480469.007812-5.265625 1.984375-10.464844 5.996094-14.476562l48.960937-48.960938c1.269531-1.273437 2-3.03125 2-4.828125s-.730469-3.558593-2-4.828125l-48.960937-48.960937c-4.011719-4.015625-5.992188-9.214844-6-14.476563.007812-5.265625 1.988281-10.464844 6-14.480468 4.015625-4.015626 9.21875-5.992188 14.484375-6.003907 5.261719.011719 10.460937 1.988281 14.480469 6.003907l48.957031 48.960937c1.289062 1.285156 3.003906 1.996094 4.828125 1.996094 1.824218 0 3.539062-.710938 4.828125-1.996094l48.957031-48.960937c4.015625-4.015626 9.21875-5.996094 14.484375-6.003907 5.261719.007813 10.460937 1.988281 14.480469 6 4.011718 4.015625 5.992187 9.214844 6 14.480469-.007813 5.261719-1.988282 10.464844-6 14.480469l-48.960938 48.960937c-1.269531 1.269532-2 3.027344-2 4.828125 0 1.796875.730469 3.554688 2 4.824219zm0 0" fill="#54596e"/></svg>